<svg width="32" height="32" viewBox="0 0 32 32" fill="none" xmlns="http://www.w3.org/2000/svg">
<rect x="0.5" y="0.5" width="31" height="31" rx="7.5" stroke="#F30AEA"/>
<path d="M16 9.99998C16.7956 9.99998 17.5587 10.316 18.1213 10.8787C18.6839 11.4413 19 12.2043 19 13C19 13.7956 18.6839 14.5587 18.1213 15.1213C17.5587 15.6839 16.7956 16 16 16C15.2044 16 14.4413 15.6839 13.8787 15.1213C13.3161 14.5587 13 13.7956 13 13C13 12.2043 13.3161 11.4413 13.8787 10.8787C14.4413 10.316 15.2044 9.99998 16 9.99998ZM16 22C16 22 22 22 22 20.5C22 18.7 19.075 16.75 16 16.75C12.925 16.75 10 18.7 10 20.5C10 22 16 22 16 22Z" fill="white"/>
</svg>
